<svg width="64" height="20" viewBox="0 0 64 20" fill="none" xmlns="http://www.w3.org/2000/svg">
<g clip-path="url(#clip0_427_815)">
<path d="M33.7272 5.02503C33.7272 5.74575 33.1474 6.32633 32.4276 6.32633C31.7079 6.32633 31.128 5.74575 31.128 5.02503C31.128 4.3043 31.6879 3.72372 32.4276 3.72372C33.1674 3.74374 33.7272 4.32432 33.7272 5.02503ZM28.3689 7.64765C28.3689 7.76777 28.3689 7.96797 28.3689 7.96797C28.3689 7.96797 27.7491 7.16717 26.4295 7.16717C24.2502 7.16717 22.5507 8.82883 22.5507 11.1311C22.5507 13.4134 24.2302 15.0951 26.4295 15.0951C27.7691 15.0951 28.3689 14.2743 28.3689 14.2743V14.6146C28.3689 14.7748 28.4889 14.8949 28.6488 14.8949H30.2683V7.36737C30.2683 7.36737 28.7888 7.36737 28.6488 7.36737C28.4889 7.36737 28.3689 7.50751 28.3689 7.64765ZM28.3689 12.4725C28.069 12.9129 27.4692 13.2933 26.7494 13.2933C25.4698 13.2933 24.4901 12.4925 24.4901 11.1311C24.4901 9.76977 25.4698 8.96897 26.7494 8.96897C27.4492 8.96897 28.089 9.36937 28.3689 9.78979V12.4725ZM31.4679 7.36737H33.3873V14.8949H31.4679V7.36737ZM60.139 7.16717C58.8194 7.16717 58.1996 7.96797 58.1996 7.96797V3.74374H56.2802V14.8949C56.2802 14.8949 57.7597 14.8949 57.8997 14.8949C58.0596 14.8949 58.1796 14.7548 58.1796 14.6146V14.2743C58.1796 14.2743 58.7994 15.0951 60.119 15.0951C62.2983 15.0951 63.9978 13.4134 63.9978 11.1311C63.9978 8.84885 62.2983 7.16717 60.139 7.16717ZM59.8191 13.2733C59.0793 13.2733 58.4995 12.8929 58.1996 12.4525V9.76977C58.4995 9.36937 59.1393 8.94895 59.8191 8.94895C61.0987 8.94895 62.0784 9.74975 62.0784 11.1111C62.0784 12.4725 61.0987 13.2733 59.8191 13.2733ZM55.2805 10.4304V14.9149H53.3611V10.6507C53.3611 9.40941 52.9612 8.90891 51.8816 8.90891C51.3017 8.90891 50.7019 9.20921 50.322 9.64965V14.8949H48.4026V7.36737H49.9222C50.0821 7.36737 50.2021 7.50751 50.2021 7.64765V7.96797C50.7619 7.38739 51.5017 7.16717 52.2414 7.16717C53.0812 7.16717 53.781 7.40741 54.3408 7.88789C55.0206 8.44845 55.2805 9.16917 55.2805 10.4304ZM43.7441 7.16717C42.4245 7.16717 41.8047 7.96797 41.8047 7.96797V3.74374H39.8853V14.8949C39.8853 14.8949 41.3648 14.8949 41.5048 14.8949C41.6647 14.8949 41.7847 14.7548 41.7847 14.6146V14.2743C41.7847 14.2743 42.4045 15.0951 43.7241 15.0951C45.9034 15.0951 47.6029 13.4134 47.6029 11.1311C47.6229 8.84885 45.9234 7.16717 43.7441 7.16717ZM43.4242 13.2733C42.6844 13.2733 42.1046 12.8929 41.8047 12.4525V9.76977C42.1046 9.36937 42.7444 8.94895 43.4242 8.94895C44.7038 8.94895 45.6835 9.74975 45.6835 11.1111C45.6835 12.4725 44.7038 13.2733 43.4242 13.2733ZM38.2258 7.16717C38.8056 7.16717 39.1055 7.26727 39.1055 7.26727V9.04905C39.1055 9.04905 37.506 8.50851 36.5064 9.64965V14.9149H34.587V7.36737C34.587 7.36737 36.0665 7.36737 36.2064 7.36737C36.3664 7.36737 36.4864 7.50751 36.4864 7.64765V7.96797C36.8462 7.54755 37.626 7.16717 38.2258 7.16717ZM18.292 14.2142C18.1921 13.974 18.0921 13.7137 17.9921 13.4935C17.8322 13.1331 17.6722 12.7928 17.5323 12.4725L17.5123 12.4525C16.1327 9.44945 14.6532 6.40641 13.0937 3.4034L13.0337 3.28328C12.8737 2.98298 12.7138 2.66266 12.5538 2.34234C12.3539 1.98198 12.154 1.6016 11.8341 1.24124C11.1943 0.44044 10.2745 0 9.29486 0C8.29517 0 7.39545 0.44044 6.73566 1.2012C6.43575 1.56156 6.21582 1.94194 6.01588 2.3023C5.85593 2.62262 5.69598 2.94294 5.53603 3.24324L5.47605 3.36336C3.93653 6.36637 2.437 9.40941 1.05743 12.4124L1.03744 12.4525C0.897479 12.7728 0.737529 13.1131 0.577579 13.4735C0.47761 13.6937 0.377641 13.9339 0.277672 14.1942C0.0177537 14.9349 -0.0622214 15.6356 0.0377474 16.3564C0.257679 17.8579 1.25737 19.1191 2.63694 19.6797C3.15677 19.8999 3.6966 20 4.25643 20C4.41638 20 4.61632 19.98 4.77627 19.96C5.43606 19.8799 6.11585 19.6597 6.77564 19.2793C7.59539 18.8188 8.37514 18.1582 9.25487 17.1972C10.1346 18.1582 10.9343 18.8188 11.7341 19.2793C12.3939 19.6597 13.0737 19.8799 13.7335 19.96C13.8934 19.98 14.0934 20 14.2533 20C14.8131 20 15.373 19.8999 15.8728 19.6797C17.2724 19.1191 18.2521 17.8378 18.472 16.3564C18.6319 15.6557 18.552 14.955 18.292 14.2142ZM9.27486 15.2553C8.1952 13.8939 7.49542 12.6126 7.25549 11.5315C7.15552 11.0711 7.13553 10.6707 7.19551 10.3103C7.2355 9.98999 7.35546 9.70971 7.51541 9.46947C7.89529 8.92893 8.53509 8.58859 9.27486 8.58859C10.0146 8.58859 10.6744 8.90891 11.0343 9.46947C11.1943 9.70971 11.3142 9.98999 11.3542 10.3103C11.4142 10.6707 11.3942 11.0911 11.2942 11.5315C11.0543 12.5926 10.3545 13.8739 9.27486 15.2553ZM17.2524 16.1962C17.1124 17.2372 16.4126 18.1381 15.4329 18.5385C14.9531 18.7387 14.4332 18.7988 13.9134 18.7387C13.4136 18.6787 12.9137 18.5185 12.3939 18.2182C11.6741 17.8178 10.9543 17.1972 10.1146 16.2763C11.4342 14.6547 12.2339 13.1732 12.5338 11.8519C12.6738 11.2312 12.6938 10.6707 12.6338 10.1502C12.5538 9.64965 12.3739 9.18919 12.094 8.78879C11.4742 7.88789 10.4345 7.36737 9.27486 7.36737C8.11522 7.36737 7.07555 7.90791 6.45574 8.78879C6.17583 9.18919 5.99589 9.64965 5.91591 10.1502C5.83594 10.6707 5.85593 11.2513 6.01588 11.8519C6.31579 13.1732 7.13553 14.6747 8.43512 16.2963C7.61538 17.2172 6.87561 17.8378 6.15584 18.2382C5.636 18.5385 5.13615 18.6987 4.63631 18.7588C4.09648 18.8188 3.57664 18.7387 3.11679 18.5586C2.13709 18.1582 1.43731 17.2573 1.29735 16.2162C1.23737 15.7157 1.27736 15.2152 1.4773 14.6547C1.53728 14.4545 1.63725 14.2543 1.73722 14.014C1.87717 13.6937 2.03712 13.3534 2.19707 13.013L2.21707 12.973C3.59664 9.98999 5.07617 6.94695 6.61569 3.98398L6.67567 3.86386C6.83562 3.56356 6.99557 3.24324 7.15552 2.94294C7.31547 2.62262 7.49542 2.32232 7.71535 2.06206C8.13522 1.58158 8.69504 1.32132 9.31485 1.32132C9.93466 1.32132 10.4945 1.58158 10.9143 2.06206C11.1343 2.32232 11.3142 2.62262 11.4742 2.94294C11.6341 3.24324 11.7941 3.56356 11.954 3.86386L12.014 3.98398C13.5335 6.96697 15.0131 10.01 16.3926 12.993V13.013C16.5526 13.3333 16.6925 13.6937 16.8525 14.014C16.9525 14.2543 17.0524 14.4545 17.1124 14.6547C17.2724 15.1752 17.3323 15.6757 17.2524 16.1962Z" fill="#FF385C"/>
</g>
<defs>
<clipPath id="clip0_427_815">
<rect width="64" height="20" fill="white"/>
</clipPath>
</defs>
</svg>
