<svg width="88" height="15" viewBox="0 0 88 15" fill="none" xmlns="http://www.w3.org/2000/svg">
<g clip-path="url(#clip0_427_799)">
<path d="M50.4258 3.20312C51.5108 3.20317 52.1979 3.5651 52.5596 3.89062L52.668 3.99902L52.7402 3.89062C52.921 3.56518 53.2468 3.38391 53.6807 3.38379L54.7305 3.31152V10.7266C54.7305 13.548 52.4513 14.5615 50.498 14.5615C49.5215 14.5615 48.4725 14.308 47.6768 13.874L47.5322 13.8018L47.7852 13.1504L47.9658 12.7168C48.1828 12.2104 48.4722 12.1015 48.9424 12.2461C49.3403 12.3908 49.8831 12.5352 50.498 12.5352C51.7639 12.5351 52.451 11.957 52.4512 10.8721V10.6543L52.2705 10.7998C51.8003 11.1253 51.2214 11.3056 50.498 11.3057C48.3278 11.3057 46.8449 9.60589 46.8447 7.21875C46.8447 4.83138 48.2916 3.20312 50.4258 3.20312ZM63.0508 3.27539C64.2444 3.27542 66.0165 3.7818 66.0166 5.15625V6.20508H64.8232C64.7147 6.20508 64.2083 6.20534 64.0273 5.62695V5.59082C63.955 5.33763 63.4848 5.1924 63.0869 5.19238C61.8209 5.19238 60.917 6.1333 60.917 7.47168C60.9172 9.02683 62.0741 9.71384 63.1953 9.71387C64.4613 9.71387 65.4023 8.70117 65.4023 8.70117L65.5107 8.55664L66.4512 10.1484L66.3789 10.2207C66.3789 10.2207 65.1849 11.6669 63.0146 11.667C60.4827 11.667 58.674 9.89505 58.6738 7.47168C58.6738 5.04814 60.5187 3.27539 63.0508 3.27539ZM21.5938 3.23828C24.0535 3.23828 25.8262 5.0472 25.8262 7.43457C25.8261 9.82189 24.0534 11.5947 21.5938 11.5947C19.1704 11.5946 17.3985 9.78565 17.3984 7.39844C17.3984 5.01116 19.1703 3.23842 21.5938 3.23828ZM70.8965 3.23926C73.3199 3.23931 75.1288 5.01212 75.1289 7.43555C75.1289 9.85905 73.32 11.5957 70.8965 11.5596C68.4729 11.5596 66.7002 9.78679 66.7002 7.39941C66.7003 5.01211 68.473 3.23926 70.8965 3.23926ZM12.5879 3.23828C15.0112 3.23834 16.8201 5.01037 16.8203 7.39746C16.8203 9.7848 15.0475 11.5576 12.5879 11.5576C10.1643 11.5576 8.3916 9.78483 8.3916 7.39746C8.39184 5.01033 10.1645 3.23828 12.5879 3.23828ZM57.0088 8.88086C57.7322 8.88091 58.3467 9.49631 58.3467 10.2197C58.3465 10.943 57.7321 11.5576 57.0088 11.5576C56.2493 11.5576 55.6701 10.9792 55.6699 10.2197C55.6699 9.46011 56.2853 8.88086 57.0088 8.88086ZM27.709 0.345703C28.3599 0.345759 28.9385 0.491342 28.9385 1.43164V6.16992H29.2998C29.5529 6.16992 29.7342 6.0977 29.8428 5.95312L31.4707 3.45703H34.0752L31.9404 6.63965C31.8319 6.82051 31.7238 6.9657 31.6152 7.07422L31.543 7.14648L31.6152 7.21875C31.7238 7.32727 31.8319 7.47246 31.9404 7.65332L32.7725 9.35352L34.1113 11.5234H32.3389C31.6878 11.5234 31.3256 11.4148 30.9639 10.7637L29.6982 8.33984C29.5897 8.19529 29.4084 8.15918 29.1553 8.15918H28.9385V11.5234H26.623V0.345703H27.709ZM43.1914 3.24023C45.0723 3.24027 46.0487 4.32507 46.085 6.35059V11.4873H45C44.1682 11.4873 43.7707 11.0895 43.7705 10.2578V6.74902C43.7705 5.7362 43.4803 5.37402 42.7568 5.37402C41.8889 5.3742 41.1653 5.91716 40.9121 6.78516C40.8037 7.07443 40.7676 7.40017 40.7676 7.76172V11.5234H38.4531V3.45703H39.502C40.1168 3.45709 40.5507 3.71048 40.6592 4.18066L40.6953 4.36133L41.0166 4.04004C41.4622 3.62797 42.1467 3.24023 43.1914 3.24023ZM35.9199 3.4209C36.7157 3.4209 37.1133 3.81843 37.1133 4.65039V11.4873H34.835V3.4209H35.9199ZM85.3682 3.27539C87.1768 3.27539 88.045 4.2888 88.0088 6.31445V11.4512H86.96C86.1643 11.4511 85.8027 11.0887 85.8027 10.293V6.71191C85.8027 5.69932 85.5494 5.30182 84.8623 5.30176C83.9582 5.30176 83.3431 6.13304 83.1621 6.96484C83.0898 7.25422 83.0537 7.54449 83.0537 7.94238V11.4873H80.8467V6.71191C80.8466 5.80775 80.5573 5.3741 79.9424 5.30176C79.0021 5.22962 78.4231 6.13391 78.2061 7.00195C78.1338 7.32729 78.0977 7.617 78.0977 7.94238V11.4873H75.8916V3.45703H76.8682C77.4829 3.45706 77.8806 3.70972 77.9893 4.14355L78.0615 4.46973L78.2783 4.21582C78.64 3.8541 79.3279 3.27539 80.4131 3.27539C81.4258 3.27543 82.149 3.67401 82.583 4.43359L82.7275 4.68652L82.9092 4.46973C83.4879 3.71021 84.4278 3.27551 85.3682 3.27539ZM3.79785 0.345703C5.89585 0.345703 7.27051 1.46681 7.27051 3.23926C7.2705 4.36049 6.69177 5.0475 6.36621 5.33691L6.07715 5.59082L6.40234 5.77148C7.23431 6.20555 7.70504 7.14632 7.74121 8.19531C7.74097 10.1845 6.22113 11.4502 3.87012 11.4502H0V1.50293C1.36032e-05 0.888103 0.506297 0.38201 1.12109 0.345703H3.79785ZM70.8965 5.22949C69.739 5.22949 68.9434 6.13343 68.9434 7.43555C68.9434 8.73775 69.739 9.64258 70.8965 9.64258C72.0539 9.64252 72.8496 8.77388 72.8496 7.43555C72.8495 6.13347 72.0539 5.22955 70.8965 5.22949ZM12.5879 5.22754C11.4304 5.22754 10.6348 6.13237 10.6348 7.43457C10.6349 8.73653 11.4305 9.64062 12.5879 9.64062C13.7452 9.64057 14.5408 8.77265 14.541 7.43457C14.541 6.13241 13.7453 5.2276 12.5879 5.22754ZM21.5938 5.22754C20.4364 5.22768 19.6406 6.13247 19.6406 7.43457C19.6407 8.73662 20.4364 9.64048 21.5938 9.64062C22.7874 9.64062 23.583 8.7729 23.5469 7.43457C23.5469 6.13237 22.7513 5.22754 21.5938 5.22754ZM2.71289 6.53125C2.31506 6.60362 2.13379 6.85694 2.13379 7.32715V9.56934H4.01562C4.95581 9.56914 5.49808 8.99012 5.46191 8.0498C5.46177 7.10952 4.88271 6.53125 3.97852 6.53125H2.71289ZM50.7871 5.26465C49.3048 5.26479 49.1954 6.71091 49.1953 7.18164C49.1953 8.23055 49.6297 9.31622 50.8955 9.31641C51.6189 9.31641 52.4872 8.95463 52.4873 7.25488C52.4873 5.48244 51.5106 5.26465 50.7871 5.26465ZM2.82129 2.1543C2.35116 2.19052 2.13379 2.44384 2.13379 2.9502V3.52832L2.09766 4.83105H3.79785C4.73833 4.83105 5.06445 4.07098 5.06445 3.45605C5.06437 2.66038 4.59361 2.1543 3.76172 2.1543H2.82129ZM35.8857 -0.015625C36.6088 -0.015349 37.2234 0.599173 37.2236 1.32227C37.2236 2.04555 36.609 2.66086 35.8857 2.66113C35.1261 2.66113 34.5469 2.04571 34.5469 1.32227C34.5471 0.562865 35.1624 -0.015625 35.8857 -0.015625Z" fill="#003B95"/>
</g>
<defs>
<clipPath id="clip0_427_799">
<rect width="88" height="14.5847" fill="white"/>
</clipPath>
</defs>
</svg>
