<svg width="460" height="460" viewBox="0 0 460 460" fill="none" xmlns="http://www.w3.org/2000/svg">
<rect width="460" height="460" rx="48" fill="#060F23"/>
<path d="M229.99 394.517L230 394.517L230.01 394.517C231.068 394.517 231.925 393.66 231.925 392.604V362.168C231.925 359.787 232.127 357.401 232.652 355.079C239.25 325.878 257.299 308.721 288.327 310.916C335.794 314.274 344.72 273.781 333.069 237.232C321.564 201.142 346.398 186.43 382.88 179.065C383.066 179.027 383.024 178.753 382.834 178.749C289.534 176.72 242.921 269.424 231.925 346.71V314.443C232.456 297.03 233.442 278.997 235.077 262.047C236.717 245.04 239.319 229.213 243.415 216.251C244.084 214.133 244.791 212.098 245.537 210.153C250.013 198.484 263.672 199.384 276.148 200.352C279.185 200.588 282.419 200.318 286.228 199.657C298.322 195.631 307.13 185.085 308.302 172.408C309.585 158.532 310.454 142.327 307.857 139.734C305.261 137.141 289.035 138.009 275.141 139.29C262.801 140.091 252.088 148.753 247.956 161.133C247.351 162.945 246.833 164.849 246.605 167.06C246.148 171.283 245.991 175.839 245.831 180.487V180.487C245.494 190.276 245.142 200.473 241.942 208.83C241.169 210.848 240.443 212.941 239.761 215.1C236.073 226.773 233.594 240.593 231.925 255.353L231.925 162.775C231.925 150.999 241.252 142.96 251.314 135.209C254.008 132.927 256.297 130.229 258.604 126.074C264.596 114.105 263.294 99.7296 254.731 89.4376C245.358 78.1725 239.761 65.4844 230 65.4844C220.239 65.4844 214.642 78.1725 205.269 89.4376C196.706 99.7296 195.404 114.105 201.396 126.074C203.703 130.229 205.992 132.927 208.686 135.209C218.748 142.96 228.075 150.999 228.075 162.775V255.353C226.406 240.593 223.927 226.773 220.239 215.1C219.557 212.941 218.831 210.848 218.058 208.83C214.858 200.473 214.506 190.276 214.169 180.487C214.009 175.839 213.852 171.283 213.395 167.06C213.167 164.849 212.649 162.945 212.044 161.133C207.912 148.753 197.199 140.091 184.859 139.29C170.965 138.009 154.739 137.141 152.143 139.734C149.546 142.327 150.415 158.532 151.698 172.408C152.87 185.085 161.678 195.631 173.772 199.657C177.581 200.318 180.815 200.588 183.852 200.352C196.328 199.384 209.987 198.484 214.463 210.153C215.209 212.098 215.916 214.133 216.585 216.251C220.681 229.213 223.283 245.04 224.923 262.047C226.558 278.997 227.544 297.03 228.075 314.443V346.71C217.079 269.424 170.466 176.72 77.1665 178.749C76.976 178.753 76.9336 179.027 77.1203 179.065C113.602 186.43 138.436 201.142 126.931 237.232C115.28 273.781 124.206 314.274 171.673 310.916C202.701 308.721 220.75 325.878 227.348 355.079C227.873 357.401 228.075 359.787 228.075 362.168V392.604C228.075 393.66 228.932 394.517 229.99 394.517Z" fill="white"/>
</svg>
