<svg width="306" height="330" viewBox="0 0 306 330" fill="none" xmlns="http://www.w3.org/2000/svg">
<path d="M152.99 329.032L153 329.032L153.01 329.032C154.068 329.032 154.925 328.176 154.925 327.119V296.684C154.925 294.303 155.127 291.917 155.652 289.594C162.25 260.393 180.299 243.237 211.327 245.432C258.794 248.79 267.72 208.297 256.069 171.748C244.564 135.658 269.398 120.945 305.88 113.58C306.066 113.543 306.024 113.269 305.834 113.265C212.534 111.236 165.921 203.94 154.925 281.225V248.959C155.456 231.545 156.442 213.513 158.077 196.563C159.717 179.556 162.319 163.729 166.415 150.767C167.084 148.648 167.791 146.614 168.537 144.669C173.013 132.999 186.672 133.899 199.148 134.868C202.185 135.103 205.419 134.834 209.228 134.173C221.322 130.146 230.13 119.601 231.302 106.923C232.585 93.0474 233.454 76.8429 230.857 74.25C228.261 71.657 212.035 72.5246 198.141 73.8059C185.801 74.6061 175.088 83.2688 170.956 95.6489C170.351 97.4608 169.833 99.3644 169.605 101.575C169.148 105.799 168.991 110.355 168.831 115.002V115.003C168.494 124.792 168.142 134.988 164.942 143.346C164.169 145.363 163.443 147.457 162.761 149.616C159.073 161.288 156.594 175.108 154.925 189.868L154.925 97.2902C154.925 85.5146 164.252 77.4756 174.314 69.7243C177.008 67.4427 179.297 64.7447 181.604 60.5893C187.596 48.6206 186.294 34.2452 177.731 23.9532C168.358 12.6882 162.761 0 153 0C143.239 0 137.642 12.6882 128.269 23.9532C119.706 34.2452 118.404 48.6206 124.396 60.5893C126.703 64.7447 128.992 67.4427 131.686 69.7243C141.748 77.4756 151.075 85.5146 151.075 97.2902V189.868C149.406 175.108 146.927 161.288 143.239 149.616C142.557 147.457 141.831 145.363 141.058 143.346C137.858 134.988 137.506 124.792 137.169 115.002C137.009 110.355 136.852 105.799 136.395 101.575C136.167 99.3644 135.649 97.4608 135.044 95.6489C130.912 83.2688 120.199 74.6061 107.859 73.8059C93.9648 72.5246 77.7392 71.657 75.1428 74.25C72.5465 76.8429 73.4152 93.0474 74.6981 106.923C75.8703 119.601 84.6784 130.146 96.7722 134.173C100.581 134.834 103.815 135.103 106.852 134.868C119.328 133.899 132.987 132.999 137.463 144.669C138.209 146.614 138.916 148.648 139.585 150.767C143.681 163.729 146.283 179.556 147.923 196.563C149.558 213.513 150.544 231.545 151.075 248.959V281.225C140.079 203.94 93.4657 111.236 0.16645 113.265C-0.0240302 113.269 -0.066412 113.543 0.120323 113.58C36.602 120.945 61.4361 135.658 49.9312 171.748C38.2802 208.297 47.2063 248.79 94.6734 245.432C125.701 243.237 143.75 260.393 150.348 289.594C150.873 291.917 151.075 294.303 151.075 296.684V327.119C151.075 328.176 151.932 329.032 152.99 329.032Z" fill="#060F23"/>
</svg>
