<svg width="269" height="242" viewBox="0 0 269 242" fill="none" xmlns="http://www.w3.org/2000/svg">
<path d="M134.055 109.677L134.059 109.677L134.062 109.677C134.414 109.677 134.7 109.392 134.7 109.04V98.8945C134.7 98.1009 134.768 97.3057 134.943 96.5315C137.142 86.7977 143.158 81.079 153.501 81.8106C169.323 82.93 172.299 69.4322 168.415 57.2494C164.58 45.2192 172.858 40.3151 185.018 37.8601C185.081 37.8475 185.067 37.7562 185.003 37.7549C153.903 37.0786 138.366 67.9799 134.7 93.7418V82.9864C134.877 77.1818 135.206 71.1709 135.751 65.5209C136.298 59.852 137.165 54.5764 138.53 50.2557C138.753 49.5495 138.989 48.8713 139.237 48.223C140.73 44.333 145.283 44.6331 149.441 44.9559C150.454 45.0345 151.532 44.9445 152.801 44.7242C156.832 43.3822 159.769 39.8669 160.159 35.6411C160.587 31.0158 160.876 25.6143 160.011 24.75C159.146 23.8857 153.737 24.1749 149.106 24.602C144.992 24.8687 141.421 27.7563 140.044 31.883C139.842 32.4869 139.669 33.1215 139.594 33.8584C139.441 35.2663 139.389 36.7849 139.336 38.3341C139.223 41.5972 139.106 44.996 138.039 47.7818C137.782 48.4545 137.54 49.1522 137.312 49.8719C136.083 53.7627 135.257 58.3694 134.7 63.2895L134.7 32.4301C134.7 28.5049 137.809 25.8252 141.163 23.2414C142.061 22.4809 142.824 21.5816 143.593 20.1964C145.591 16.2069 145.157 11.4151 142.302 7.98439C139.178 4.22938 137.312 0 134.059 0C130.805 0 128.939 4.22938 125.815 7.98439C122.96 11.4151 122.527 16.2069 124.524 20.1964C125.293 21.5816 126.056 22.4809 126.954 23.2414C130.308 25.8252 133.417 28.5049 133.417 32.4301L133.417 63.2895C132.861 58.3694 132.034 53.7627 130.805 49.8719C130.578 49.1522 130.336 48.4545 130.078 47.7818C129.011 44.9961 128.894 41.5972 128.782 38.3341C128.728 36.7849 128.676 35.2663 128.523 33.8584C128.448 33.1215 128.275 32.4869 128.073 31.883C126.696 27.7563 123.125 24.8687 119.012 24.602C114.38 24.1749 108.972 23.8857 108.106 24.75C107.241 25.6143 107.53 31.0158 107.958 35.6411C108.349 39.8669 111.285 43.3822 115.316 44.7242C116.586 44.9445 117.664 45.0345 118.676 44.9559C122.835 44.6331 127.388 44.333 128.88 48.223C129.128 48.8713 129.364 49.5495 129.587 50.2557C130.952 54.5764 131.82 59.852 132.366 65.5209C132.911 71.1709 133.24 77.1818 133.417 82.9864V93.7418C129.752 67.9799 114.214 37.0786 83.1141 37.7549C83.0506 37.7562 83.0365 37.8475 83.0987 37.8601C95.2593 40.3151 103.537 45.2192 99.7023 57.2494C95.8187 69.4322 98.794 82.93 114.616 81.8106C124.959 81.079 130.975 86.7977 133.175 96.5315C133.349 97.3057 133.417 98.1009 133.417 98.8945V109.04C133.417 109.392 133.703 109.677 134.055 109.677Z" fill="#060F23"/>
<g clip-path="url(#clip0_394_31)">
<path d="M234.59 207.502C228.431 207.502 222.799 206.035 217.695 203.102C212.591 200.11 208.543 196.091 205.551 191.046C202.559 186 201.062 180.486 201.062 174.502C201.062 168.518 202.529 163.032 205.463 158.046C208.396 153 212.415 149.011 217.519 146.078C222.681 143.144 228.372 141.678 234.59 141.678C240.75 141.678 246.383 143.144 251.487 146.078C256.649 149.011 260.697 153 263.63 158.046C266.622 163.032 268.118 168.518 268.118 174.502C268.118 180.486 266.652 186 263.719 191.046C260.785 196.091 256.737 200.11 251.575 203.102C246.471 206.035 240.809 207.502 234.59 207.502ZM239.519 204.51C243.977 204.51 247.761 203.512 250.87 201.518C254.038 199.523 256.415 196.854 257.999 193.51C259.641 190.107 260.462 186.382 260.462 182.334C260.462 176.584 259.084 170.776 256.327 164.91C253.628 159.043 249.903 154.232 245.15 150.478C240.457 146.664 235.295 144.758 229.663 144.758C225.204 144.758 221.391 145.755 218.223 147.75C215.055 149.744 212.649 152.443 211.007 155.846C209.423 159.19 208.631 162.856 208.631 166.846C208.631 172.595 209.98 178.403 212.678 184.27C215.436 190.136 219.161 194.976 223.855 198.79C228.607 202.603 233.828 204.51 239.519 204.51Z" fill="#060F23"/>
<path d="M147.285 206.623C147.93 195.359 148.253 184.681 148.253 174.591C148.253 164.383 147.93 153.705 147.285 142.559H156.877C156.29 152.708 155.997 163.385 155.997 174.591C155.997 185.737 156.29 196.415 156.877 206.623H147.285ZM184.597 206.623C181.605 201.636 178.232 196.708 174.477 191.839C170.722 186.911 166 180.985 160.309 174.063L158.725 172.215C166.234 165.233 172.248 159.543 176.765 155.143C181.341 150.684 185.389 146.489 188.909 142.559H193.925C185.594 149.423 176.208 157.753 165.765 167.551C174.389 179.577 184.744 192.601 196.829 206.623H184.597Z" fill="#060F23"/>
<path d="M120.055 206.623C120.7 195.359 121.023 184.681 121.023 174.591C121.023 164.383 120.7 153.705 120.055 142.559H129.647C129.06 152.708 128.767 163.385 128.767 174.591C128.767 185.737 129.06 196.415 129.647 206.623H120.055Z" fill="#060F23"/>
<path d="M65.6445 206.623C66.2899 195.359 66.6125 184.681 66.6125 174.591C66.6125 164.383 66.2899 153.705 65.6445 142.559H75.2365C74.5912 153.705 74.2685 164.324 74.2685 174.415C74.2685 183.567 74.5619 193.804 75.1485 205.127C87.0579 205.127 97.7352 204.305 107.181 202.663V206.623H65.6445Z" fill="#060F23"/>
<path d="M0 206.623C3.63733 197.999 6.952 189.551 9.944 181.279C12.9947 172.948 16.984 161.772 21.912 147.751L23.76 142.559H31.504C37.2533 162.212 44.8213 183.567 54.208 206.623H44.088C41.7413 198.233 38.9547 189.433 35.728 180.223H12.496C9.09333 190.489 6.336 199.289 4.224 206.623H0ZM35.2 178.727C31.2693 167.639 27.368 157.401 23.496 148.015L20.504 156.727C17.688 164.823 15.1653 172.156 12.936 178.727H35.2Z" fill="#060F23"/>
</g>
<path fill-rule="evenodd" clip-rule="evenodd" d="M32.2734 233.365C32.2921 233.366 32.3108 233.366 32.3296 233.366C36.5111 233.366 39.9045 229.991 39.9349 225.816L39.9353 225.816C39.9656 229.972 43.329 233.336 47.4845 233.366C43.3156 233.335 39.9416 236.783 39.9351 240.959C39.9286 236.764 36.526 233.366 32.3296 233.366C32.3108 233.366 32.2921 233.366 32.2734 233.366L32.2734 233.365ZM39.9351 240.983C39.9351 240.998 39.935 241.013 39.9349 241.027L39.9353 241.027C39.9352 241.013 39.9351 240.998 39.9351 240.983Z" fill="#060F23"/>
<g clip-path="url(#clip1_394_31)">
<path d="M207.726 232.125H215.382V234.479H207.726V232.125ZM207.946 238.725H216.636V241.123H205.086V225.723H216.328V228.121H207.946V238.725Z" fill="#060F23"/>
<path d="M191.83 241.342C190.656 241.342 189.564 241.151 188.552 240.77C187.554 240.374 186.682 239.824 185.934 239.12C185.2 238.401 184.628 237.558 184.218 236.59C183.807 235.622 183.602 234.566 183.602 233.422C183.602 232.278 183.807 231.222 184.218 230.254C184.628 229.286 185.208 228.45 185.956 227.746C186.704 227.027 187.576 226.477 188.574 226.096C189.571 225.7 190.664 225.502 191.852 225.502C193.113 225.502 194.264 225.722 195.306 226.162C196.347 226.587 197.227 227.225 197.946 228.076L196.098 229.814C195.54 229.213 194.917 228.765 194.228 228.472C193.538 228.164 192.79 228.01 191.984 228.01C191.177 228.01 190.436 228.142 189.762 228.406C189.102 228.67 188.522 229.044 188.024 229.528C187.54 230.012 187.158 230.584 186.88 231.244C186.616 231.904 186.484 232.63 186.484 233.422C186.484 234.214 186.616 234.94 186.88 235.6C187.158 236.26 187.54 236.832 188.024 237.316C188.522 237.8 189.102 238.174 189.762 238.438C190.436 238.702 191.177 238.834 191.984 238.834C192.79 238.834 193.538 238.687 194.228 238.394C194.917 238.086 195.54 237.624 196.098 237.008L197.946 238.768C197.227 239.604 196.347 240.242 195.306 240.682C194.264 241.122 193.106 241.342 191.83 241.342Z" fill="#060F23"/>
<path d="M162.488 241.123V225.723H164.842L174.5 237.581H173.334V225.723H176.172V241.123H173.818L164.16 229.265H165.326V241.123H162.488Z" fill="#060F23"/>
<path d="M145.992 232.125H153.648V234.479H145.992V232.125ZM146.212 238.725H154.902V241.123H143.352V225.723H154.594V228.121H146.212V238.725Z" fill="#060F23"/>
<path d="M120.777 241.123V225.723H127.509C129.181 225.723 130.648 226.045 131.909 226.691C133.171 227.336 134.153 228.231 134.857 229.375C135.561 230.519 135.913 231.868 135.913 233.423C135.913 234.963 135.561 236.312 134.857 237.471C134.153 238.615 133.171 239.509 131.909 240.155C130.648 240.8 129.181 241.123 127.509 241.123H120.777ZM123.637 238.703H127.377C128.536 238.703 129.533 238.483 130.369 238.043C131.22 237.603 131.873 236.987 132.327 236.195C132.797 235.403 133.031 234.479 133.031 233.423C133.031 232.352 132.797 231.428 132.327 230.651C131.873 229.859 131.22 229.243 130.369 228.803C129.533 228.363 128.536 228.143 127.377 228.143H123.637V238.703Z" fill="#060F23"/>
<path d="M109.352 241.123V225.723H112.212V241.123H109.352Z" fill="#060F23"/>
<path d="M95.8884 241.342C94.6857 241.342 93.5344 241.173 92.4344 240.836C91.3344 240.484 90.4617 240.037 89.8164 239.494L90.8064 237.272C91.4224 237.756 92.1851 238.159 93.0944 238.482C94.0037 238.805 94.9351 238.966 95.8884 238.966C96.6951 238.966 97.3477 238.878 97.8464 238.702C98.3451 238.526 98.7117 238.291 98.9464 237.998C99.1811 237.69 99.2984 237.345 99.2984 236.964C99.2984 236.495 99.1297 236.121 98.7924 235.842C98.4551 235.549 98.0151 235.321 97.4724 235.16C96.9444 234.984 96.3504 234.823 95.6904 234.676C95.0451 234.529 94.3924 234.361 93.7324 234.17C93.0871 233.965 92.4931 233.708 91.9504 233.4C91.4224 233.077 90.9897 232.652 90.6524 232.124C90.3151 231.596 90.1464 230.921 90.1464 230.1C90.1464 229.264 90.3664 228.501 90.8064 227.812C91.2611 227.108 91.9431 226.551 92.8524 226.14C93.7764 225.715 94.9424 225.502 96.3504 225.502C97.2744 225.502 98.1911 225.619 99.1004 225.854C100.01 226.089 100.802 226.426 101.476 226.866L100.574 229.088C99.8851 228.677 99.1737 228.377 98.4404 228.186C97.7071 227.981 97.0031 227.878 96.3284 227.878C95.5364 227.878 94.8911 227.973 94.3924 228.164C93.9084 228.355 93.5491 228.604 93.3144 228.912C93.0944 229.22 92.9844 229.572 92.9844 229.968C92.9844 230.437 93.1457 230.819 93.4684 231.112C93.8057 231.391 94.2384 231.611 94.7664 231.772C95.3091 231.933 95.9104 232.095 96.5704 232.256C97.2304 232.403 97.8831 232.571 98.5284 232.762C99.1884 232.953 99.7824 233.202 100.31 233.51C100.853 233.818 101.286 234.236 101.608 234.764C101.946 235.292 102.114 235.959 102.114 236.766C102.114 237.587 101.887 238.35 101.432 239.054C100.992 239.743 100.31 240.301 99.3864 240.726C98.4624 241.137 97.2964 241.342 95.8884 241.342Z" fill="#060F23"/>
<path d="M74.6166 232.125H82.2726V234.479H74.6166V232.125ZM74.8366 238.725H83.5266V241.123H71.9766V225.723H83.2186V228.121H74.8366V238.725Z" fill="#060F23"/>
<path d="M51.4844 241.123V225.723H57.8204C59.1844 225.723 60.3504 225.943 61.3184 226.383C62.301 226.823 63.0564 227.453 63.5844 228.275C64.1124 229.096 64.3764 230.071 64.3764 231.201C64.3764 232.33 64.1124 233.305 63.5844 234.127C63.0564 234.933 62.301 235.557 61.3184 235.997C60.3504 236.422 59.1844 236.635 57.8204 236.635H53.0684L54.3444 235.337V241.123H51.4844ZM61.5604 241.123L57.6664 235.535H60.7244L64.6404 241.123H61.5604ZM54.3444 235.645L53.0684 234.281H57.6884C58.9497 234.281 59.8957 234.009 60.5264 233.467C61.1717 232.924 61.4944 232.169 61.4944 231.201C61.4944 230.218 61.1717 229.463 60.5264 228.935C59.8957 228.407 58.9497 228.143 57.6884 228.143H53.0684L54.3444 226.735V235.645Z" fill="#060F23"/>
</g>
<path fill-rule="evenodd" clip-rule="evenodd" d="M220.637 233.365C220.655 233.366 220.674 233.366 220.693 233.366C224.874 233.366 228.268 229.991 228.298 225.816L228.299 225.816C228.329 229.972 231.692 233.336 235.848 233.366C231.679 233.335 228.305 236.783 228.298 240.959C228.292 236.764 224.889 233.366 220.693 233.366C220.674 233.366 220.655 233.366 220.637 233.366L220.637 233.365ZM228.298 240.983C228.298 240.998 228.298 241.013 228.298 241.027L228.299 241.027C228.298 241.013 228.298 240.998 228.298 240.983Z" fill="#060F23"/>
<defs>
<clipPath id="clip0_394_31">
<rect width="268.117" height="65.824" fill="white" transform="translate(0 141.678)"/>
</clipPath>
<clipPath id="clip1_394_31">
<rect width="165.15" height="15.84" fill="white" transform="translate(51.4844 225.502)"/>
</clipPath>
</defs>
</svg>
